<svg width="797" height="870" viewBox="0 0 797 870" fill="none" xmlns="http://www.w3.org/2000/svg">
<g filter="url(#filter0_iii_115_36)">
<rect width="796.543" height="796.543" rx="220" fill="#C4C4C4"/>
<rect width="796.543" height="796.543" rx="220" fill="url(#paint0_linear_115_36)"/>
<rect width="796.543" height="796.543" rx="220" fill="url(#paint1_linear_115_36)"/>
</g>
<g filter="url(#filter1_dii_115_36)">
<g filter="url(#filter2_d_115_36)">
<path fill-rule="evenodd" clip-rule="evenodd" d="M203.967 334.288L398.712 338.27L399.508 722.184C399.508 722.184 377.206 724.175 363.068 695.7C348.931 667.225 273.661 643.33 151 640.941L203.967 334.288Z" fill="#005595"/>
<path fill-rule="evenodd" clip-rule="evenodd" d="M593.432 334.288L398.687 338.27L397.891 722.184C397.891 722.184 420.193 724.175 434.331 695.7C448.468 667.225 523.738 643.33 646.399 640.941L593.432 334.288Z" fill="#005595"/>
<path fill-rule="evenodd" clip-rule="evenodd" d="M398.712 325.847V679.874C398.712 679.874 308.389 604.78 197.994 607.01L230.332 347.191L256.258 325.725L398.712 325.847Z" fill="white" stroke="#005595" stroke-width="4.46041"/>
<path fill-rule="evenodd" clip-rule="evenodd" d="M398.892 325.929V679.956C398.892 679.956 489.215 604.861 599.61 607.091L567.272 347.273L541.346 325.807L398.892 325.929Z" fill="white" stroke="#005595" stroke-width="4.46041"/>
<path d="M398.712 679.874C398.712 679.874 301.038 567.119 222.188 582.101L256.685 325.84" stroke="#005595" stroke-width="4.46041"/>
<path d="M222.526 581.92L197.854 612.585" stroke="#005595" stroke-width="4.46041"/>
<path d="M398.696 679.973C398.696 679.973 496.37 567.218 575.219 582.199L540.722 325.938" stroke="#005595" stroke-width="4.46041"/>
<path d="M574.882 582.019L599.554 612.684" stroke="#005595" stroke-width="4.46041"/>
<path fill-rule="evenodd" clip-rule="evenodd" d="M163.84 479.596C163.84 479.596 447.698 457.518 596.724 501.674L629.052 501.28C629.052 501.28 638.909 501.28 638.514 510.348C638.12 519.415 625.898 529.271 606.975 517.05L608.552 527.694L587.262 528.089L573.858 517.05L577.406 526.512L552.963 532.82L530.885 532.031L518.663 518.627L525.365 530.06L517.086 533.608L503.682 535.579L459.132 535.974L439.813 511.136L450.064 532.425L436.265 542.676L420.495 525.723L417.341 537.945L369.243 537.156L356.627 518.232L363.329 534.397L363.724 536.762H325.087L316.019 520.204L310.106 537.551C310.106 537.551 300.644 537.156 299.067 537.156C299.067 537.156 275.018 526.512 245.449 488.27L239.535 488.664L238.747 491.818L226.131 492.212L222.977 484.721C222.977 484.721 217.763 490.972 201.293 498.52L200.111 499.062L187.495 499.309L163.84 479.596Z" fill="#005595" stroke="white" stroke-width="4.46041"/>
<path d="M511.009 347.749C511.009 360.822 499.119 373.36 477.954 382.604C456.79 391.849 428.085 397.042 398.154 397.042C368.224 397.042 339.519 391.849 318.354 382.604C297.19 373.36 285.3 360.822 285.3 347.749C285.3 334.675 297.19 322.137 318.354 312.893C339.519 303.649 368.224 298.455 398.154 298.455C428.085 298.455 456.79 303.649 477.954 312.893C499.119 322.137 511.009 334.675 511.009 347.749Z" fill="#312F32" stroke="white" stroke-width="4.07406" stroke-miterlimit="3.86369" stroke-linecap="round" stroke-linejoin="bevel"/>
<path d="M585.494 302.265L403.654 224.087C402.091 223.415 399.558 223.416 397.995 224.09L216.312 302.418C214.75 303.091 214.751 304.182 216.314 304.854L398.153 383.032C399.716 383.704 402.249 383.703 403.812 383.029L585.495 304.701C587.057 304.028 587.057 302.937 585.494 302.265Z" fill="#312F32" stroke="white" stroke-width="3.0212" stroke-miterlimit="3.86369" stroke-linecap="round" stroke-linejoin="bevel"/>
<path d="M400.783 304.156L215.881 304.55L219.035 358.168L219.429 360.928" stroke="#F2CB00" stroke-width="5.79853" stroke-linejoin="round"/>
<path fill-rule="evenodd" clip-rule="evenodd" d="M217.852 352.648L216.078 361.322C216.078 361.322 214.501 366.841 214.698 368.615C214.895 370.39 214.895 372.755 216.078 375.909C217.26 379.063 220.217 383.991 220.611 384.977C221.006 385.962 224.357 391.482 224.751 392.27C225.145 393.059 226.328 395.03 226.722 395.819C227.116 396.607 228.299 400.549 228.299 400.549L228.891 391.088C228.891 391.088 228.102 388.131 228.102 387.145C228.102 386.159 228.102 382.217 228.102 382.217L228.891 379.26L229.876 375.121L232.242 369.601L232.833 362.505L230.862 357.971L226.722 354.62C226.722 354.62 222.78 352.254 221.991 351.86C221.203 351.466 219.626 345.946 219.626 345.946L217.457 346.143L217.852 352.648Z" fill="#F2CB00" stroke="#F2CB00" stroke-width="4.46041"/>
<path d="M219.728 356.985C219.117 357.857 219.531 359.335 219.531 360.73C219.531 362.049 219.157 362.66 218.742 363.49C218.364 364.246 217.961 365.054 217.56 365.856C217.211 366.552 217.56 368.407 217.56 369.207C217.56 370.402 217.757 371.436 217.757 372.558C217.757 373.398 218.332 374.661 218.545 375.515C218.846 376.718 219.306 377.179 219.531 378.077C219.716 378.819 220.562 379.965 220.911 380.837C221.379 382.007 221.811 382.666 222.093 383.794C222.319 384.694 223.054 385.32 223.473 386.159C223.902 387.017 224.458 387.932 224.853 388.722C225.125 389.266 225.123 389.853 225.445 390.496" stroke="#F5F900" stroke-width="0.178416"/>
<path d="M222.882 357.379C223.298 358.211 223.67 360.94 223.67 362.505C223.67 363.687 223.67 364.87 223.67 366.053C223.67 367.17 223.67 368.287 223.67 369.404C223.67 370.521 223.67 371.638 223.67 372.755C223.67 373.222 223.999 373.577 224.064 373.741" stroke="#F5F900" stroke-width="0.178416"/>
<path d="M220.319 368.615C220.319 369.444 220.978 371.644 221.305 372.952C221.639 374.289 222.315 375.547 222.882 376.303C223.47 377.087 224.007 377.803 224.656 378.669C225.295 379.52 225.715 379.947 226.036 381.231C226.27 382.165 226.233 383.118 226.233 383.991" stroke="#F5F900" stroke-width="0.178416"/>
<path d="M227.81 358.759C228.047 359.707 229.287 360.04 229.978 360.73C230.488 361.24 230.558 362.855 230.767 363.687C231.027 364.728 230.964 365.654 230.964 366.841C230.964 368.343 231.012 368.973 230.175 369.601C229.533 370.083 228.974 371.412 228.598 372.164C228.539 372.281 228.598 372.426 228.598 372.558" stroke="#F5F900" stroke-width="0.178416"/>
<path d="M226.43 361.913C226.298 362.178 227.416 364.478 227.416 365.461C227.416 366.578 227.81 367.356 227.81 368.615C227.81 369.3 226.837 370.955 226.627 371.375C226.248 372.134 226.166 372.495 225.839 373.149" stroke="#F5F900" stroke-width="0.178416"/>
<path d="M406.404 304.008C406.406 304.65 406.269 305.285 406.003 305.878C405.736 306.471 405.344 307.01 404.85 307.465C404.355 307.919 403.768 308.279 403.121 308.525C402.475 308.771 401.782 308.897 401.082 308.897C400.382 308.897 399.689 308.771 399.043 308.525C398.396 308.279 397.809 307.919 397.315 307.465C396.82 307.01 396.428 306.471 396.162 305.878C395.895 305.285 395.758 304.65 395.76 304.008C395.758 303.366 395.895 302.731 396.162 302.138C396.428 301.545 396.82 301.006 397.315 300.551C397.809 300.097 398.396 299.737 399.043 299.491C399.689 299.245 400.382 299.119 401.082 299.119C401.782 299.119 402.475 299.245 403.121 299.491C403.768 299.737 404.355 300.097 404.85 300.551C405.344 301.006 405.736 301.545 406.003 302.138C406.269 302.731 406.406 303.366 406.404 304.008Z" fill="#F2CB00" stroke="#E0E315" stroke-width="0.178416" stroke-linecap="square" stroke-linejoin="round" stroke-dasharray="0.18 0.18"/>
</g>
<path fill-rule="evenodd" clip-rule="evenodd" d="M398.825 182.05L386.406 218.435L419.088 193.095H379.651L409.719 218.002L398.825 182.05Z" fill="#005595" stroke="#005595" stroke-width="3.47569"/>
<path d="M396.859 207.869C395.532 206.77 393.877 205.399 393.182 204.823L391.918 203.777L393.198 200.024C393.903 197.959 394.76 195.45 395.104 194.447L395.728 192.624L399.05 192.643L402.372 192.662L404.166 198.58C405.152 201.835 405.967 204.537 405.977 204.585C405.991 204.65 400.478 209.006 399.458 209.735L399.271 209.868L396.859 207.869Z" fill="#005595" stroke="#005595" stroke-width="0.00288704" stroke-linecap="square" stroke-linejoin="round" stroke-dasharray="0 0"/>
<path fill-rule="evenodd" clip-rule="evenodd" d="M461.271 182.05L448.851 218.435L481.534 193.095H442.097L472.165 218.002L461.271 182.05Z" fill="#005595" stroke="#005595" stroke-width="3.47569"/>
<path d="M459.305 207.869C457.978 206.77 456.323 205.399 455.628 204.823L454.364 203.777L455.644 200.024C456.349 197.959 457.206 195.45 457.549 194.447L458.174 192.624L461.496 192.643L464.818 192.662L466.611 198.58C467.598 201.835 468.413 204.537 468.423 204.585C468.437 204.65 462.923 209.006 461.904 209.735L461.717 209.868L459.305 207.869Z" fill="#005595" stroke="#005595" stroke-width="0.00288704" stroke-linecap="square" stroke-linejoin="round" stroke-dasharray="0 0"/>
<path fill-rule="evenodd" clip-rule="evenodd" d="M336.379 182.05L323.96 218.435L356.642 193.095H317.206L347.273 218.002L336.379 182.05Z" fill="#005595" stroke="#005595" stroke-width="3.47569"/>
<path d="M334.413 207.869C333.086 206.77 331.432 205.399 330.736 204.823L329.472 203.777L330.753 200.024C331.457 197.959 332.314 195.45 332.658 194.447L333.282 192.624L336.604 192.643L339.926 192.662L341.72 198.58C342.706 201.835 343.522 204.537 343.532 204.585C343.546 204.65 338.032 209.006 337.012 209.735L336.826 209.868L334.413 207.869Z" fill="#005595" stroke="#005595" stroke-width="0.00288704" stroke-linecap="square" stroke-linejoin="round" stroke-dasharray="0 0"/>
<path fill-rule="evenodd" clip-rule="evenodd" d="M282.854 173.129L270.435 209.515L303.117 184.175H263.681L293.748 209.082L282.854 173.129Z" fill="#005595" stroke="#005595" stroke-width="3.47569"/>
<path d="M280.888 198.948C279.561 197.849 277.907 196.478 277.211 195.903L275.947 194.856L277.228 191.103C277.932 189.039 278.789 186.529 279.133 185.527L279.757 183.703L283.079 183.722L286.401 183.741L288.195 189.659C289.181 192.915 289.997 195.617 290.007 195.664C290.021 195.729 284.507 200.085 283.487 200.814L283.301 200.948L280.888 198.948Z" fill="#005595" stroke="#005595" stroke-width="0.00288704" stroke-linecap="square" stroke-linejoin="round" stroke-dasharray="0 0"/>
<path fill-rule="evenodd" clip-rule="evenodd" d="M514.796 173.129L502.376 209.515L535.059 184.175H495.622L525.69 209.082L514.796 173.129Z" fill="#005595" stroke="#005595" stroke-width="3.47569"/>
<path d="M512.83 198.948C511.503 197.849 509.848 196.478 509.153 195.903L507.889 194.856L509.169 191.103C509.873 189.039 510.731 186.529 511.074 185.527L511.699 183.703L515.021 183.722L518.343 183.741L520.136 189.659C521.123 192.915 521.938 195.617 521.948 195.664C521.962 195.729 516.448 200.085 515.428 200.814L515.242 200.948L512.83 198.948Z" fill="#005595" stroke="#005595" stroke-width="0.00288704" stroke-linecap="square" stroke-linejoin="round" stroke-dasharray="0 0"/>
<path fill-rule="evenodd" clip-rule="evenodd" d="M229.329 164.208L216.91 200.594L249.592 175.254H210.156L240.223 200.161L229.329 164.208Z" fill="#005595" stroke="#005595" stroke-width="3.47569"/>
<path d="M227.363 190.028C226.036 188.928 224.382 187.557 223.686 186.982L222.422 185.935L223.703 182.182C224.407 180.118 225.264 177.609 225.608 176.606L226.233 174.783L229.555 174.801L232.877 174.82L234.67 180.739C235.656 183.994 236.472 186.696 236.482 186.743C236.496 186.808 230.982 191.164 229.962 191.894L229.776 192.027L227.363 190.028Z" fill="#005595" stroke="#005595" stroke-width="0.00288704" stroke-linecap="square" stroke-linejoin="round" stroke-dasharray="0 0"/>
<path fill-rule="evenodd" clip-rule="evenodd" d="M568.32 164.208L555.901 200.594L588.583 175.254H549.147L579.215 200.161L568.32 164.208Z" fill="#005595" stroke="#005595" stroke-width="3.47569"/>
<path d="M566.354 190.028C565.027 188.928 563.373 187.557 562.678 186.982L561.414 185.935L562.694 182.182C563.398 180.118 564.256 177.609 564.599 176.606L565.224 174.783L568.546 174.801L571.868 174.82L573.661 180.739C574.648 183.994 575.463 186.696 575.473 186.743C575.487 186.808 569.973 191.164 568.953 191.894L568.767 192.027L566.354 190.028Z" fill="#005595" stroke="#005595" stroke-width="0.00288704" stroke-linecap="square" stroke-linejoin="round" stroke-dasharray="0 0"/>
<path fill-rule="evenodd" clip-rule="evenodd" d="M193.646 128.525L181.227 164.911L213.909 139.571H174.473L204.54 164.478L193.646 128.525Z" fill="#005595" stroke="#005595" stroke-width="3.47569"/>
<path d="M191.68 154.344C190.353 153.245 188.699 151.874 188.003 151.299L186.739 150.252L188.02 146.499C188.724 144.435 189.581 141.925 189.925 140.923L190.549 139.099L193.871 139.118L197.193 139.137L198.987 145.055C199.973 148.311 200.789 151.012 200.799 151.06C200.813 151.125 195.299 155.481 194.279 156.21L194.093 156.344L191.68 154.344Z" fill="#005595" stroke="#005595" stroke-width="0.00288704" stroke-linecap="square" stroke-linejoin="round" stroke-dasharray="0 0"/>
<path fill-rule="evenodd" clip-rule="evenodd" d="M604.004 128.525L591.584 164.911L624.267 139.571H584.83L614.898 164.478L604.004 128.525Z" fill="#005595" stroke="#005595" stroke-width="3.47569"/>
<path d="M602.038 154.344C600.711 153.245 599.056 151.874 598.361 151.299L597.097 150.252L598.377 146.499C599.081 144.435 599.939 141.925 600.282 140.923L600.907 139.099L604.229 139.118L607.551 139.137L609.344 145.055C610.331 148.311 611.146 151.012 611.156 151.06C611.17 151.125 605.656 155.481 604.636 156.21L604.45 156.344L602.038 154.344Z" fill="#005595" stroke="#005595" stroke-width="0.00288704" stroke-linecap="square" stroke-linejoin="round" stroke-dasharray="0 0"/>
<path fill-rule="evenodd" clip-rule="evenodd" d="M229.329 92.8417L216.91 129.227L249.592 103.887H210.156L240.223 128.794L229.329 92.8417Z" fill="#005595" stroke="#005595" stroke-width="3.47569"/>
<path d="M227.363 118.661C226.036 117.562 224.382 116.191 223.686 115.615L222.422 114.569L223.703 110.816C224.407 108.751 225.264 106.242 225.608 105.239L226.233 103.416L229.555 103.435L232.877 103.454L234.67 109.372C235.656 112.627 236.472 115.329 236.482 115.376C236.496 115.442 230.982 119.798 229.962 120.527L229.776 120.66L227.363 118.661Z" fill="#005595" stroke="#005595" stroke-width="0.00288704" stroke-linecap="square" stroke-linejoin="round" stroke-dasharray="0 0"/>
<path fill-rule="evenodd" clip-rule="evenodd" d="M282.854 83.9208L270.435 120.307L303.117 94.9665H263.681L293.748 119.873L282.854 83.9208Z" fill="#005595" stroke="#005595" stroke-width="3.47569"/>
<path d="M280.888 109.74C279.561 108.641 277.907 107.27 277.211 106.695L275.947 105.648L277.228 101.895C277.932 99.8306 278.789 97.3212 279.133 96.3185L279.757 94.4953L283.079 94.5141L286.401 94.5328L288.195 100.451C289.181 103.706 289.997 106.408 290.007 106.456C290.021 106.521 284.507 110.877 283.487 111.606L283.301 111.74L280.888 109.74Z" fill="#005595" stroke="#005595" stroke-width="0.00288704" stroke-linecap="square" stroke-linejoin="round" stroke-dasharray="0 0"/>
<path fill-rule="evenodd" clip-rule="evenodd" d="M336.379 75L323.96 111.386L356.642 86.0457H317.206L347.273 110.953L336.379 75Z" fill="#005595" stroke="#005595" stroke-width="3.47569"/>
<path d="M334.413 100.82C333.086 99.72 331.432 98.3494 330.736 97.7737L329.472 96.7272L330.753 92.974C331.457 90.9098 332.314 88.4004 332.658 87.3976L333.282 85.5745L336.604 85.5932L339.926 85.612L341.72 91.5305C342.706 94.7856 343.522 97.4876 343.532 97.5348C343.546 97.6001 338.032 101.956 337.012 102.685L336.826 102.819L334.413 100.82Z" fill="#005595" stroke="#005595" stroke-width="0.00288704" stroke-linecap="square" stroke-linejoin="round" stroke-dasharray="0 0"/>
<path fill-rule="evenodd" clip-rule="evenodd" d="M398.825 75L386.406 111.386L419.088 86.0457H379.651L409.719 110.953L398.825 75Z" fill="#005595" stroke="#005595" stroke-width="3.47569"/>
<path d="M396.859 100.82C395.532 99.72 393.877 98.3494 393.182 97.7737L391.918 96.7272L393.198 92.974C393.903 90.9098 394.76 88.4004 395.104 87.3976L395.728 85.5745L399.05 85.5932L402.372 85.612L404.166 91.5305C405.152 94.7856 405.967 97.4876 405.977 97.5348C405.991 97.6001 400.478 101.956 399.458 102.685L399.271 102.819L396.859 100.82Z" fill="#005595" stroke="#005595" stroke-width="0.00288704" stroke-linecap="square" stroke-linejoin="round" stroke-dasharray="0 0"/>
<path fill-rule="evenodd" clip-rule="evenodd" d="M461.271 75L448.851 111.386L481.534 86.0457H442.097L472.165 110.953L461.271 75Z" fill="#005595" stroke="#005595" stroke-width="3.47569"/>
<path d="M459.305 100.82C457.978 99.72 456.323 98.3494 455.628 97.7737L454.364 96.7272L455.644 92.974C456.349 90.9098 457.206 88.4004 457.549 87.3976L458.174 85.5745L461.496 85.5932L464.818 85.612L466.611 91.5305C467.598 94.7856 468.413 97.4876 468.423 97.5348C468.437 97.6001 462.923 101.956 461.904 102.685L461.717 102.819L459.305 100.82Z" fill="#005595" stroke="#005595" stroke-width="0.00288704" stroke-linecap="square" stroke-linejoin="round" stroke-dasharray="0 0"/>
<path fill-rule="evenodd" clip-rule="evenodd" d="M514.796 83.9208L502.376 120.307L535.059 94.9665H495.622L525.69 119.873L514.796 83.9208Z" fill="#005595" stroke="#005595" stroke-width="3.47569"/>
<path d="M512.83 109.74C511.503 108.641 509.848 107.27 509.153 106.695L507.889 105.648L509.169 101.895C509.873 99.8306 510.731 97.3212 511.074 96.3185L511.699 94.4953L515.021 94.5141L518.343 94.5328L520.136 100.451C521.123 103.706 521.938 106.408 521.948 106.456C521.962 106.521 516.448 110.877 515.428 111.606L515.242 111.74L512.83 109.74Z" fill="#005595" stroke="#005595" stroke-width="0.00288704" stroke-linecap="square" stroke-linejoin="round" stroke-dasharray="0 0"/>
<path fill-rule="evenodd" clip-rule="evenodd" d="M568.32 92.8417L555.901 129.227L588.583 103.887H549.147L579.215 128.794L568.32 92.8417Z" fill="#005595" stroke="#005595" stroke-width="3.47569"/>
<path d="M566.354 118.661C565.027 117.562 563.373 116.191 562.678 115.615L561.414 114.569L562.694 110.816C563.398 108.751 564.256 106.242 564.599 105.239L565.224 103.416L568.546 103.435L571.868 103.454L573.661 109.372C574.648 112.627 575.463 115.329 575.473 115.376C575.487 115.442 569.973 119.798 568.953 120.527L568.767 120.66L566.354 118.661Z" fill="#005595" stroke="#005595" stroke-width="0.00288704" stroke-linecap="square" stroke-linejoin="round" stroke-dasharray="0 0"/>
</g>
<defs>
<filter id="filter0_iii_115_36" x="0" y="-30.1656" width="796.543" height="849.118" filterUnits="userSpaceOnUse" color-interpolation-filters="sRGB">
<feFlood flood-opacity="0" result="BackgroundImageFix"/>
<feBlend mode="normal" in="SourceGraphic" in2="BackgroundImageFix" result="shape"/>
<feColorMatrix in="SourceAlpha" type="matrix" values="0 0 0 0 0 0 0 0 0 0 0 0 0 0 0 0 0 0 127 0" result="hardAlpha"/>
<feOffset dy="22.4087"/>
<feGaussianBlur stdDeviation="20.685"/>
<feComposite in2="hardAlpha" operator="arithmetic" k2="-1" k3="1"/>
<feColorMatrix type="matrix" values="0 0 0 0 1 0 0 0 0 1 0 0 0 0 1 0 0 0 0.54 0"/>
<feBlend mode="normal" in2="shape" result="effect1_innerShadow_115_36"/>
<feColorMatrix in="SourceAlpha" type="matrix" values="0 0 0 0 0 0 0 0 0 0 0 0 0 0 0 0 0 0 127 0" result="hardAlpha"/>
<feOffset dy="-30.1656"/>
<feGaussianBlur stdDeviation="20.685"/>
<feComposite in2="hardAlpha" operator="arithmetic" k2="-1" k3="1"/>
<feColorMatrix type="matrix" values="0 0 0 0 0.0588235 0 0 0 0 0.45098 0 0 0 0 0.819608 0 0 0 0.94 0"/>
<feBlend mode="normal" in2="effect1_innerShadow_115_36" result="effect2_innerShadow_115_36"/>
<feColorMatrix in="SourceAlpha" type="matrix" values="0 0 0 0 0 0 0 0 0 0 0 0 0 0 0 0 0 0 127 0" result="hardAlpha"/>
<feOffset dy="-15"/>
<feGaussianBlur stdDeviation="12"/>
<feComposite in2="hardAlpha" operator="arithmetic" k2="-1" k3="1"/>
<feColorMatrix type="matrix" values="0 0 0 0 0.858333 0 0 0 0 0.970486 0 0 0 0 1 0 0 0 0.4 0"/>
<feBlend mode="normal" in2="effect2_innerShadow_115_36" result="effect3_innerShadow_115_36"/>
</filter>
<filter id="filter1_dii_115_36" x="46" y="6.33185" width="705.399" height="862.882" filterUnits="userSpaceOnUse" color-interpolation-filters="sRGB">
<feFlood flood-opacity="0" result="BackgroundImageFix"/>
<feColorMatrix in="SourceAlpha" type="matrix" values="0 0 0 0 0 0 0 0 0 0 0 0 0 0 0 0 0 0 127 0" result="hardAlpha"/>
<feOffset dy="42"/>
<feGaussianBlur stdDeviation="52.5"/>
<feComposite in2="hardAlpha" operator="out"/>
<feColorMatrix type="matrix" values="0 0 0 0 0 0 0 0 0 0 0 0 0 0 0 0 0 0 0.55 0"/>
<feBlend mode="normal" in2="BackgroundImageFix" result="effect1_dropShadow_115_36"/>
<feBlend mode="normal" in="SourceGraphic" in2="effect1_dropShadow_115_36" result="shape"/>
<feColorMatrix in="SourceAlpha" type="matrix" values="0 0 0 0 0 0 0 0 0 0 0 0 0 0 0 0 0 0 127 0" result="hardAlpha"/>
<feOffset dy="-8"/>
<feGaussianBlur stdDeviation="9"/>
<feComposite in2="hardAlpha" operator="arithmetic" k2="-1" k3="1"/>
<feColorMatrix type="matrix" values="0 0 0 0 1 0 0 0 0 1 0 0 0 0 1 0 0 0 0.25 0"/>
<feBlend mode="normal" in2="shape" result="effect2_innerShadow_115_36"/>
<feColorMatrix in="SourceAlpha" type="matrix" values="0 0 0 0 0 0 0 0 0 0 0 0 0 0 0 0 0 0 127 0" result="hardAlpha"/>
<feOffset dx="-16" dy="-45"/>
<feComposite in2="hardAlpha" operator="arithmetic" k2="-1" k3="1"/>
<feColorMatrix type="matrix" values="0 0 0 0 0.133333 0 0 0 0 0.184314 0 0 0 0 0.243137 0 0 0 0.53 0"/>
<feBlend mode="normal" in2="effect2_innerShadow_115_36" result="effect3_innerShadow_115_36"/>
</filter>
<filter id="filter2_d_115_36" x="147" y="222.739" width="503.399" height="507.475" filterUnits="userSpaceOnUse" color-interpolation-filters="sRGB">
<feFlood flood-opacity="0" result="BackgroundImageFix"/>
<feColorMatrix in="SourceAlpha" type="matrix" values="0 0 0 0 0 0 0 0 0 0 0 0 0 0 0 0 0 0 127 0" result="hardAlpha"/>
<feOffset dy="4"/>
<feGaussianBlur stdDeviation="2"/>
<feComposite in2="hardAlpha" operator="out"/>
<feColorMatrix type="matrix" values="0 0 0 0 0 0 0 0 0 0 0 0 0 0 0 0 0 0 0.25 0"/>
<feBlend mode="normal" in2="BackgroundImageFix" result="effect1_dropShadow_115_36"/>
<feBlend mode="normal" in="SourceGraphic" in2="effect1_dropShadow_115_36" result="shape"/>
</filter>
<linearGradient id="paint0_linear_115_36" x1="0" y1="0" x2="742.909" y2="814.598" gradientUnits="userSpaceOnUse">
<stop stop-color="#E8EFF4"/>
<stop offset="1" stop-color="#E6ECF0"/>
</linearGradient>
<linearGradient id="paint1_linear_115_36" x1="757.263" y1="806.376" x2="137.629" y2="-49.9362" gradientUnits="userSpaceOnUse">
<stop stop-color="#0075FF"/>
<stop offset="0.579482" stop-color="#2CAEFF"/>
<stop offset="1" stop-color="#48D3FF"/>
</linearGradient>
</defs>
</svg>
