<?xml version="1.0" encoding="UTF-8" standalone="no"?>

<svg
   xmlns:dc="http://purl.org/dc/elements/1.1/"
   xmlns:cc="http://creativecommons.org/ns#"
   xmlns:rdf="http://www.w3.org/1999/02/22-rdf-syntax-ns#"
   xmlns:svg="http://www.w3.org/2000/svg"
   xmlns="http://www.w3.org/2000/svg"
   xmlns:sodipodi="http://sodipodi.sourceforge.net/DTD/sodipodi-0.dtd"
   xmlns:inkscape="http://www.inkscape.org/namespaces/inkscape"
   width="495.39877"
   height="648.9516"
   id="svg2"
   sodipodi:version="0.32"
   inkscape:version="0.46"
   version="1.0"
   sodipodi:docname="Universidad de Guayaquil.svg"
   inkscape:output_extension="org.inkscape.output.svg.inkscape">
  <defs
     id="defs4">
    <inkscape:perspective
       sodipodi:type="inkscape:persp3d"
       inkscape:vp_x="0 : 526.18109 : 1"
       inkscape:vp_y="0 : 1000 : 0"
       inkscape:vp_z="744.09448 : 526.18109 : 1"
       inkscape:persp3d-origin="372.04724 : 350.78739 : 1"
       id="perspective10" />
    <inkscape:perspective
       id="perspective2390"
       inkscape:persp3d-origin="372.04724 : 350.78739 : 1"
       inkscape:vp_z="744.09448 : 526.18109 : 1"
       inkscape:vp_y="0 : 1000 : 0"
       inkscape:vp_x="0 : 526.18109 : 1"
       sodipodi:type="inkscape:persp3d" />
  </defs>
  <sodipodi:namedview
     id="base"
     pagecolor="#ffffff"
     bordercolor="#666666"
     borderopacity="1.0"
     inkscape:pageopacity="0.0"
     inkscape:pageshadow="2"
     inkscape:zoom="0.35355339"
     inkscape:cx="-139.01109"
     inkscape:cy="204.61599"
     inkscape:document-units="px"
     inkscape:current-layer="layer1"
     showgrid="false"
     showguides="true"
     inkscape:guide-bbox="true"
     inkscape:window-width="1024"
     inkscape:window-height="712"
     inkscape:window-x="-4"
     inkscape:window-y="-4" />
  <metadata
     id="metadata7">
    <rdf:RDF>
      <cc:Work
         rdf:about="">
        <dc:format>image/svg+xml</dc:format>
        <dc:type
           rdf:resource="http://purl.org/dc/dcmitype/StillImage" />
      </cc:Work>
    </rdf:RDF>
  </metadata>
  <g
     inkscape:label="Capa 1"
     inkscape:groupmode="layer"
     id="layer1"
     transform="translate(-335.71433,-74.198743)">
    <g
       id="g3437"
       transform="matrix(4.4604063,0,0,4.4604063,-1161.7078,-256.75777)">
      <g
         id="g3414">
        <path
           style="fill:#005595;fill-opacity:1;fill-rule:evenodd;stroke:none;stroke-width:1px;stroke-linecap:butt;stroke-linejoin:miter;stroke-opacity:1"
           d="M 347.58929,132.71932 L 391.25,133.61218 L 391.42857,219.68361 C 391.42857,219.68361 386.42857,220.13004 383.25893,213.74611 C 380.08929,207.36218 363.21429,202.00503 335.71429,201.46932 L 347.58929,132.71932 z"
           id="path2402"
           sodipodi:nodetypes="cccss" />
        <path
           sodipodi:nodetypes="cccss"
           id="path3174"
           d="M 434.90513,132.71932 L 391.24442,133.61218 L 391.06585,219.68361 C 391.06585,219.68361 396.06585,220.13004 399.23549,213.74611 C 402.40513,207.36218 419.28013,202.00503 446.78013,201.46932 L 434.90513,132.71932 z"
           style="fill:#005595;fill-opacity:1;fill-rule:evenodd;stroke:none;stroke-width:1px;stroke-linecap:butt;stroke-linejoin:miter;stroke-opacity:1" />
        <path
           style="fill:#ffffff;fill-opacity:1;fill-rule:evenodd;stroke:#005595;stroke-width:1px;stroke-linecap:butt;stroke-linejoin:miter;stroke-opacity:1"
           d="M 391.25,130.82703 L 391.25,210.19801 C 391.25,210.19801 371,193.36219 346.25,193.86219 L 353.5,135.61219 L 359.3125,130.79968 L 391.25,130.82703 z"
           id="path3180"
           sodipodi:nodetypes="ccs" />
        <path
           sodipodi:nodetypes="ccs"
           id="path3182"
           d="M 391.2904,130.84534 L 391.2904,210.21632 C 391.2904,210.21632 411.5404,193.3805 436.2904,193.8805 L 429.0404,135.6305 L 423.2279,130.81799 L 391.2904,130.84534 z"
           style="fill:#ffffff;fill-opacity:1;fill-rule:evenodd;stroke:#005595;stroke-width:1px;stroke-linecap:butt;stroke-linejoin:miter;stroke-opacity:1" />
        <g
           id="g3188"
           transform="translate(200,0)">
          <path
             sodipodi:nodetypes="cs"
             id="path3184"
             d="M 191.25,210.19801 C 191.25,210.19801 169.35207,184.91894 151.6744,188.2777 L 159.40838,130.82527 L 159.40838,130.82527"
             style="fill:none;fill-rule:evenodd;stroke:#005595;stroke-width:1px;stroke-linecap:butt;stroke-linejoin:miter;stroke-opacity:1" />
          <path
             id="path3186"
             d="M 151.75,188.23718 L 146.21875,195.11218 L 146.21875,195.11218"
             style="fill:none;fill-rule:evenodd;stroke:#005595;stroke-width:1px;stroke-linecap:butt;stroke-linejoin:miter;stroke-opacity:1" />
        </g>
        <g
           transform="matrix(-1,0,0,1,582.49648,2.2097059e-2)"
           id="g3192">
          <path
             style="fill:none;fill-rule:evenodd;stroke:#005595;stroke-width:1px;stroke-linecap:butt;stroke-linejoin:miter;stroke-opacity:1"
             d="M 191.25,210.19801 C 191.25,210.19801 169.35207,184.91894 151.6744,188.2777 L 159.40838,130.82527 L 159.40838,130.82527"
             id="path3194"
             sodipodi:nodetypes="cs" />
          <path
             style="fill:none;fill-rule:evenodd;stroke:#005595;stroke-width:1px;stroke-linecap:butt;stroke-linejoin:miter;stroke-opacity:1"
             d="M 151.75,188.23718 L 146.21875,195.11218 L 146.21875,195.11218"
             id="path3196" />
        </g>
        <path
           style="fill:#005595;fill-opacity:1;fill-rule:evenodd;stroke:#ffffff;stroke-width:1px;stroke-linecap:butt;stroke-linejoin:miter;stroke-opacity:1"
           d="M 338.59293,165.29673 C 338.59293,165.29673 402.23254,160.34698 435.64333,170.24648 L 442.89118,170.15809 C 442.89118,170.15809 445.10089,170.15809 445.0125,172.19102 C 444.92411,174.22395 442.18407,176.43366 437.94143,173.69362 L 438.29498,176.08011 L 433.52201,176.16849 L 430.51681,173.69362 L 431.31231,175.81494 L 425.83223,177.22915 L 420.88248,177.05238 L 418.14244,174.04717 L 419.64504,176.61044 L 417.78889,177.40593 L 414.78368,177.84787 L 404.7958,177.93626 L 400.46477,172.3678 L 402.76287,177.14077 L 399.66928,179.43886 L 396.13374,175.63816 L 395.42664,178.3782 L 384.64326,178.20143 L 381.81483,173.95879 L 383.31743,177.58271 L 383.40582,178.11304 L 374.74376,178.11304 L 372.71083,174.40073 L 371.38501,178.28981 C 371.38501,178.28981 369.26369,178.20143 368.91013,178.20143 C 368.91013,178.20143 363.51844,175.81494 356.88932,167.24127 L 355.56349,167.32966 L 355.38671,168.03677 L 352.55829,168.12515 L 351.85118,166.44578 C 351.85118,166.44578 350.68217,167.84709 346.98982,169.53937 L 346.72465,169.6609 L 343.89623,169.71615 L 338.59293,165.29673 z"
           id="path3198"
           sodipodi:nodetypes="cscsscccccccccccccccccccccccssccccsccc" />
        <path
           sodipodi:type="arc"
           style="opacity:1;fill:#312f32;fill-opacity:1;stroke:#ffffff;stroke-width:0.76599997;stroke-linecap:round;stroke-linejoin:bevel;stroke-miterlimit:3.8636899;stroke-dasharray:none;stroke-dashoffset:0;stroke-opacity:1"
           id="path3204"
           sodipodi:cx="191.125"
           sodipodi:cy="139.11218"
           sodipodi:rx="25.375"
           sodipodi:ry="7.75"
           d="M 216.5,139.11218 A 25.375,7.75 0 1 1 165.75,139.11218 A 25.375,7.75 0 1 1 216.5,139.11218 z"
           transform="matrix(0.9970959,0,0,1.4259752,200.55505,-62.633347)" />
        <rect
           style="opacity:1;fill:#312f32;fill-opacity:1;stroke:#ffffff;stroke-width:0.677338;stroke-linecap:round;stroke-linejoin:bevel;stroke-miterlimit:3.8636899;stroke-dasharray:none;stroke-dashoffset:0;stroke-opacity:1"
           id="rect3200"
           width="45.756725"
           height="45.737846"
           x="349.6922"
           y="-76.733406"
           transform="matrix(0.918693,0.3949723,-0.9182943,0.3958984,0,0)"
           ry="0.6906237" />
        <path
           style="fill:none;fill-opacity:1;fill-rule:evenodd;stroke:#f2cb00;stroke-width:1.29999995;stroke-linecap:butt;stroke-linejoin:round;stroke-miterlimit:4;stroke-dasharray:none;stroke-opacity:1"
           d="M 391.71433,125.96391 L 350.26019,126.0523 L 350.9673,138.07312 L 351.05569,138.69184"
           id="path3206" />
        <path
           style="fill:#f2cb00;fill-opacity:1;fill-rule:evenodd;stroke:#f2cb00;stroke-width:1px;stroke-linecap:butt;stroke-linejoin:miter;stroke-opacity:1"
           d="M 350.70213,136.83568 L 350.30438,138.78022 C 350.30438,138.78022 349.95083,140.01766 349.99503,140.41541 C 350.03922,140.81316 350.03922,141.34349 350.30438,142.05059 C 350.56955,142.7577 351.23246,143.86255 351.32085,144.08352 C 351.40924,144.30449 352.16054,145.54193 352.24893,145.71871 C 352.33732,145.89548 352.60248,146.33743 352.69087,146.5142 C 352.77926,146.69098 353.04442,147.57486 353.04442,147.57486 L 353.17701,145.45354 C 353.17701,145.45354 353.00023,144.79063 353.00023,144.56966 C 353.00023,144.34869 353.00023,143.46481 353.00023,143.46481 L 353.17701,142.80189 L 353.39798,141.87382 L 353.92831,140.63638 L 354.06089,139.04539 L 353.61895,138.02892 L 352.69087,137.27762 C 352.69087,137.27762 351.80699,136.74729 351.63021,136.6589 C 351.45343,136.57051 351.09988,135.33308 351.09988,135.33308 L 350.61374,135.37727 L 350.70213,136.83568 z"
           id="path3216" />
        <path
           style="fill:none;fill-rule:evenodd;stroke:#f5f900;stroke-width:0.04;stroke-linecap:butt;stroke-linejoin:miter;stroke-miterlimit:4;stroke-dasharray:none;stroke-opacity:1"
           d="M 351.12271,137.80795 C 350.98563,138.00336 351.07852,138.33481 351.07852,138.64764 C 351.07852,138.94333 350.99475,139.08033 350.90174,139.26636 C 350.81701,139.43582 350.72646,139.61692 350.63657,139.79669 C 350.55849,139.95286 350.63657,140.36858 350.63657,140.54799 C 350.63657,140.81597 350.68077,141.04777 350.68077,141.29929 C 350.68077,141.48771 350.80971,141.77086 350.85755,141.9622 C 350.92498,142.23194 351.02814,142.33522 351.07852,142.53673 C 351.1201,142.70307 351.30968,142.95996 351.38788,143.15545 C 351.49278,143.41772 351.58982,143.5655 351.65304,143.81836 C 351.70351,144.02025 351.86829,144.16047 351.9624,144.34869 C 352.05859,144.54106 352.18323,144.74615 352.27176,144.92321 C 352.33272,145.04514 352.33229,145.17685 352.40434,145.32096"
           id="path3246" />
        <path
           style="fill:none;fill-rule:evenodd;stroke:#f5f900;stroke-width:0.04;stroke-linecap:butt;stroke-linejoin:miter;stroke-miterlimit:4;stroke-dasharray:none;stroke-opacity:1"
           d="M 351.82982,137.89634 C 351.92307,138.08285 352.00659,138.69465 352.00659,139.04539 C 352.00659,139.31055 352.00659,139.57572 352.00659,139.84088 C 352.00659,140.09132 352.00659,140.34175 352.00659,140.59218 C 352.00659,140.84262 352.00659,141.09305 352.00659,141.34349 C 352.00659,141.44825 352.08034,141.52786 352.09498,141.56446"
           id="path3248" />
        <path
           style="fill:none;fill-rule:evenodd;stroke:#f5f900;stroke-width:0.04;stroke-linecap:butt;stroke-linejoin:miter;stroke-miterlimit:4;stroke-dasharray:none;stroke-opacity:1"
           d="M 351.25529,140.41541 C 351.25529,140.60119 351.40296,141.09445 351.47626,141.38768 C 351.55121,141.68748 351.70259,141.96935 351.82982,142.13898 C 351.96156,142.31463 352.08201,142.47524 352.22756,142.66931 C 352.37071,142.86017 352.46492,142.95582 352.53692,143.24383 C 352.58927,143.45324 352.58112,143.66686 352.58112,143.86255"
           id="path3250" />
        <path
           style="fill:none;fill-rule:evenodd;stroke:#f5f900;stroke-width:0.04;stroke-linecap:butt;stroke-linejoin:miter;stroke-miterlimit:4;stroke-dasharray:none;stroke-opacity:1"
           d="M 352.93467,138.2057 C 352.98779,138.41816 353.26595,138.49279 353.42081,138.64764 C 353.53512,138.76195 353.55094,139.12398 353.59758,139.31055 C 353.65592,139.5439 353.64178,139.75143 353.64178,140.01766 C 353.64178,140.35438 353.65264,140.49565 353.465,140.63638 C 353.32103,140.74436 353.1957,141.04239 353.11145,141.2109 C 353.09827,141.23725 353.11145,141.26983 353.11145,141.29929"
           id="path3252" />
        <path
           style="fill:none;fill-rule:evenodd;stroke:#f5f900;stroke-width:0.04;stroke-linecap:butt;stroke-linejoin:miter;stroke-miterlimit:4;stroke-dasharray:none;stroke-opacity:1"
           d="M 352.62531,138.91281 C 352.59563,138.97217 352.84628,139.48777 352.84628,139.7083 C 352.84628,139.95864 352.93467,140.13307 352.93467,140.41541 C 352.93467,140.56897 352.71658,140.93998 352.66951,141.03413 C 352.58446,141.20421 352.56604,141.28525 352.49273,141.43187"
           id="path3254" />
        <path
           sodipodi:type="arc"
           style="opacity:1;fill:#f2cb00;fill-opacity:1;stroke:#e0e315;stroke-width:0.04;stroke-linecap:square;stroke-linejoin:round;stroke-miterlimit:4;stroke-dasharray:0.04, 0.04;stroke-dashoffset:0;stroke-opacity:1"
           id="path3258"
           sodipodi:cx="391.78134"
           sodipodi:cy="125.93076"
           sodipodi:rx="1.1932427"
           sodipodi:ry="1.0938058"
           d="M 392.97458,125.93076 A 1.1932427,1.0938058 0 1 1 390.5881,125.93076 A 1.1932427,1.0938058 0 1 1 392.97458,125.93076 z" />
      </g>
      <g
         transform="translate(200,0)"
         id="g3364">
        <g
           id="g3264"
           transform="translate(0,60)">
          <path
             id="path3260"
             d="M 191.27532,38.588353 L 188.49099,46.74584 L 195.81817,41.06473 L 186.97671,41.06473 L 193.71771,46.64874 L 191.27532,38.588353 z"
             style="fill:#005595;fill-opacity:1;fill-rule:evenodd;stroke:#005595;stroke-width:0.77923238px;stroke-linecap:butt;stroke-linejoin:miter;stroke-opacity:1" />
          <path
             id="path3262"
             d="M 190.8345,44.37695 C 190.537,44.130434 190.16607,43.823154 190.01019,43.694105 L 189.72679,43.459472 L 190.01386,42.618025 C 190.17177,42.15523 190.36396,41.592644 190.44099,41.367832 L 190.58101,40.959086 L 191.32579,40.963291 L 192.07055,40.967496 L 192.47265,42.294391 C 192.69381,43.024185 192.87662,43.62995 192.87885,43.640538 C 192.88197,43.65518 191.64582,44.631748 191.41717,44.795275 L 191.37538,44.825161 L 190.8345,44.37695 z"
             style="opacity:1;fill:#005595;fill-opacity:1;stroke:#005595;stroke-width:0.00064726;stroke-linecap:square;stroke-linejoin:round;stroke-miterlimit:4;stroke-dasharray:0.00064726, 0.00064726;stroke-dashoffset:0;stroke-opacity:1" />
        </g>
        <g
           transform="translate(14,60)"
           id="g3268">
          <path
             style="fill:#005595;fill-opacity:1;fill-rule:evenodd;stroke:#005595;stroke-width:0.77923238px;stroke-linecap:butt;stroke-linejoin:miter;stroke-opacity:1"
             d="M 191.27532,38.588353 L 188.49099,46.74584 L 195.81817,41.06473 L 186.97671,41.06473 L 193.71771,46.64874 L 191.27532,38.588353 z"
             id="path3270" />
          <path
             style="opacity:1;fill:#005595;fill-opacity:1;stroke:#005595;stroke-width:0.00064726;stroke-linecap:square;stroke-linejoin:round;stroke-miterlimit:4;stroke-dasharray:0.00064726, 0.00064726;stroke-dashoffset:0;stroke-opacity:1"
             d="M 190.8345,44.37695 C 190.537,44.130434 190.16607,43.823154 190.01019,43.694105 L 189.72679,43.459472 L 190.01386,42.618025 C 190.17177,42.15523 190.36396,41.592644 190.44099,41.367832 L 190.58101,40.959086 L 191.32579,40.963291 L 192.07055,40.967496 L 192.47265,42.294391 C 192.69381,43.024185 192.87662,43.62995 192.87885,43.640538 C 192.88197,43.65518 191.64582,44.631748 191.41717,44.795275 L 191.37538,44.825161 L 190.8345,44.37695 z"
             id="path3272" />
        </g>
        <g
           transform="translate(-14,60)"
           id="g3274">
          <path
             style="fill:#005595;fill-opacity:1;fill-rule:evenodd;stroke:#005595;stroke-width:0.77923238px;stroke-linecap:butt;stroke-linejoin:miter;stroke-opacity:1"
             d="M 191.27532,38.588353 L 188.49099,46.74584 L 195.81817,41.06473 L 186.97671,41.06473 L 193.71771,46.64874 L 191.27532,38.588353 z"
             id="path3276" />
          <path
             style="opacity:1;fill:#005595;fill-opacity:1;stroke:#005595;stroke-width:0.00064726;stroke-linecap:square;stroke-linejoin:round;stroke-miterlimit:4;stroke-dasharray:0.00064726, 0.00064726;stroke-dashoffset:0;stroke-opacity:1"
             d="M 190.8345,44.37695 C 190.537,44.130434 190.16607,43.823154 190.01019,43.694105 L 189.72679,43.459472 L 190.01386,42.618025 C 190.17177,42.15523 190.36396,41.592644 190.44099,41.367832 L 190.58101,40.959086 L 191.32579,40.963291 L 192.07055,40.967496 L 192.47265,42.294391 C 192.69381,43.024185 192.87662,43.62995 192.87885,43.640538 C 192.88197,43.65518 191.64582,44.631748 191.41717,44.795275 L 191.37538,44.825161 L 190.8345,44.37695 z"
             id="path3278" />
        </g>
        <g
           id="g3280"
           transform="translate(-26,58)">
          <path
             id="path3282"
             d="M 191.27532,38.588353 L 188.49099,46.74584 L 195.81817,41.06473 L 186.97671,41.06473 L 193.71771,46.64874 L 191.27532,38.588353 z"
             style="fill:#005595;fill-opacity:1;fill-rule:evenodd;stroke:#005595;stroke-width:0.77923238px;stroke-linecap:butt;stroke-linejoin:miter;stroke-opacity:1" />
          <path
             id="path3284"
             d="M 190.8345,44.37695 C 190.537,44.130434 190.16607,43.823154 190.01019,43.694105 L 189.72679,43.459472 L 190.01386,42.618025 C 190.17177,42.15523 190.36396,41.592644 190.44099,41.367832 L 190.58101,40.959086 L 191.32579,40.963291 L 192.07055,40.967496 L 192.47265,42.294391 C 192.69381,43.024185 192.87662,43.62995 192.87885,43.640538 C 192.88197,43.65518 191.64582,44.631748 191.41717,44.795275 L 191.37538,44.825161 L 190.8345,44.37695 z"
             style="opacity:1;fill:#005595;fill-opacity:1;stroke:#005595;stroke-width:0.00064726;stroke-linecap:square;stroke-linejoin:round;stroke-miterlimit:4;stroke-dasharray:0.00064726, 0.00064726;stroke-dashoffset:0;stroke-opacity:1" />
        </g>
        <g
           id="g3286"
           transform="translate(26,58)">
          <path
             id="path3288"
             d="M 191.27532,38.588353 L 188.49099,46.74584 L 195.81817,41.06473 L 186.97671,41.06473 L 193.71771,46.64874 L 191.27532,38.588353 z"
             style="fill:#005595;fill-opacity:1;fill-rule:evenodd;stroke:#005595;stroke-width:0.77923238px;stroke-linecap:butt;stroke-linejoin:miter;stroke-opacity:1" />
          <path
             id="path3290"
             d="M 190.8345,44.37695 C 190.537,44.130434 190.16607,43.823154 190.01019,43.694105 L 189.72679,43.459472 L 190.01386,42.618025 C 190.17177,42.15523 190.36396,41.592644 190.44099,41.367832 L 190.58101,40.959086 L 191.32579,40.963291 L 192.07055,40.967496 L 192.47265,42.294391 C 192.69381,43.024185 192.87662,43.62995 192.87885,43.640538 C 192.88197,43.65518 191.64582,44.631748 191.41717,44.795275 L 191.37538,44.825161 L 190.8345,44.37695 z"
             style="opacity:1;fill:#005595;fill-opacity:1;stroke:#005595;stroke-width:0.00064726;stroke-linecap:square;stroke-linejoin:round;stroke-miterlimit:4;stroke-dasharray:0.00064726, 0.00064726;stroke-dashoffset:0;stroke-opacity:1" />
        </g>
        <g
           transform="translate(-38,56)"
           id="g3292">
          <path
             style="fill:#005595;fill-opacity:1;fill-rule:evenodd;stroke:#005595;stroke-width:0.77923238px;stroke-linecap:butt;stroke-linejoin:miter;stroke-opacity:1"
             d="M 191.27532,38.588353 L 188.49099,46.74584 L 195.81817,41.06473 L 186.97671,41.06473 L 193.71771,46.64874 L 191.27532,38.588353 z"
             id="path3294" />
          <path
             style="opacity:1;fill:#005595;fill-opacity:1;stroke:#005595;stroke-width:0.00064726;stroke-linecap:square;stroke-linejoin:round;stroke-miterlimit:4;stroke-dasharray:0.00064726, 0.00064726;stroke-dashoffset:0;stroke-opacity:1"
             d="M 190.8345,44.37695 C 190.537,44.130434 190.16607,43.823154 190.01019,43.694105 L 189.72679,43.459472 L 190.01386,42.618025 C 190.17177,42.15523 190.36396,41.592644 190.44099,41.367832 L 190.58101,40.959086 L 191.32579,40.963291 L 192.07055,40.967496 L 192.47265,42.294391 C 192.69381,43.024185 192.87662,43.62995 192.87885,43.640538 C 192.88197,43.65518 191.64582,44.631748 191.41717,44.795275 L 191.37538,44.825161 L 190.8345,44.37695 z"
             id="path3296" />
        </g>
        <g
           transform="translate(38,56)"
           id="g3298">
          <path
             style="fill:#005595;fill-opacity:1;fill-rule:evenodd;stroke:#005595;stroke-width:0.77923238px;stroke-linecap:butt;stroke-linejoin:miter;stroke-opacity:1"
             d="M 191.27532,38.588353 L 188.49099,46.74584 L 195.81817,41.06473 L 186.97671,41.06473 L 193.71771,46.64874 L 191.27532,38.588353 z"
             id="path3300" />
          <path
             style="opacity:1;fill:#005595;fill-opacity:1;stroke:#005595;stroke-width:0.00064726;stroke-linecap:square;stroke-linejoin:round;stroke-miterlimit:4;stroke-dasharray:0.00064726, 0.00064726;stroke-dashoffset:0;stroke-opacity:1"
             d="M 190.8345,44.37695 C 190.537,44.130434 190.16607,43.823154 190.01019,43.694105 L 189.72679,43.459472 L 190.01386,42.618025 C 190.17177,42.15523 190.36396,41.592644 190.44099,41.367832 L 190.58101,40.959086 L 191.32579,40.963291 L 192.07055,40.967496 L 192.47265,42.294391 C 192.69381,43.024185 192.87662,43.62995 192.87885,43.640538 C 192.88197,43.65518 191.64582,44.631748 191.41717,44.795275 L 191.37538,44.825161 L 190.8345,44.37695 z"
             id="path3302" />
        </g>
        <g
           id="g3304"
           transform="translate(-46,48)">
          <path
             id="path3306"
             d="M 191.27532,38.588353 L 188.49099,46.74584 L 195.81817,41.06473 L 186.97671,41.06473 L 193.71771,46.64874 L 191.27532,38.588353 z"
             style="fill:#005595;fill-opacity:1;fill-rule:evenodd;stroke:#005595;stroke-width:0.77923238px;stroke-linecap:butt;stroke-linejoin:miter;stroke-opacity:1" />
          <path
             id="path3308"
             d="M 190.8345,44.37695 C 190.537,44.130434 190.16607,43.823154 190.01019,43.694105 L 189.72679,43.459472 L 190.01386,42.618025 C 190.17177,42.15523 190.36396,41.592644 190.44099,41.367832 L 190.58101,40.959086 L 191.32579,40.963291 L 192.07055,40.967496 L 192.47265,42.294391 C 192.69381,43.024185 192.87662,43.62995 192.87885,43.640538 C 192.88197,43.65518 191.64582,44.631748 191.41717,44.795275 L 191.37538,44.825161 L 190.8345,44.37695 z"
             style="opacity:1;fill:#005595;fill-opacity:1;stroke:#005595;stroke-width:0.00064726;stroke-linecap:square;stroke-linejoin:round;stroke-miterlimit:4;stroke-dasharray:0.00064726, 0.00064726;stroke-dashoffset:0;stroke-opacity:1" />
        </g>
        <g
           id="g3310"
           transform="translate(46,48)">
          <path
             id="path3312"
             d="M 191.27532,38.588353 L 188.49099,46.74584 L 195.81817,41.06473 L 186.97671,41.06473 L 193.71771,46.64874 L 191.27532,38.588353 z"
             style="fill:#005595;fill-opacity:1;fill-rule:evenodd;stroke:#005595;stroke-width:0.77923238px;stroke-linecap:butt;stroke-linejoin:miter;stroke-opacity:1" />
          <path
             id="path3314"
             d="M 190.8345,44.37695 C 190.537,44.130434 190.16607,43.823154 190.01019,43.694105 L 189.72679,43.459472 L 190.01386,42.618025 C 190.17177,42.15523 190.36396,41.592644 190.44099,41.367832 L 190.58101,40.959086 L 191.32579,40.963291 L 192.07055,40.967496 L 192.47265,42.294391 C 192.69381,43.024185 192.87662,43.62995 192.87885,43.640538 C 192.88197,43.65518 191.64582,44.631748 191.41717,44.795275 L 191.37538,44.825161 L 190.8345,44.37695 z"
             style="opacity:1;fill:#005595;fill-opacity:1;stroke:#005595;stroke-width:0.00064726;stroke-linecap:square;stroke-linejoin:round;stroke-miterlimit:4;stroke-dasharray:0.00064726, 0.00064726;stroke-dashoffset:0;stroke-opacity:1" />
        </g>
        <g
           id="g3322"
           transform="translate(-38,40)">
          <path
             id="path3324"
             d="M 191.27532,38.588353 L 188.49099,46.74584 L 195.81817,41.06473 L 186.97671,41.06473 L 193.71771,46.64874 L 191.27532,38.588353 z"
             style="fill:#005595;fill-opacity:1;fill-rule:evenodd;stroke:#005595;stroke-width:0.77923238px;stroke-linecap:butt;stroke-linejoin:miter;stroke-opacity:1" />
          <path
             id="path3326"
             d="M 190.8345,44.37695 C 190.537,44.130434 190.16607,43.823154 190.01019,43.694105 L 189.72679,43.459472 L 190.01386,42.618025 C 190.17177,42.15523 190.36396,41.592644 190.44099,41.367832 L 190.58101,40.959086 L 191.32579,40.963291 L 192.07055,40.967496 L 192.47265,42.294391 C 192.69381,43.024185 192.87662,43.62995 192.87885,43.640538 C 192.88197,43.65518 191.64582,44.631748 191.41717,44.795275 L 191.37538,44.825161 L 190.8345,44.37695 z"
             style="opacity:1;fill:#005595;fill-opacity:1;stroke:#005595;stroke-width:0.00064726;stroke-linecap:square;stroke-linejoin:round;stroke-miterlimit:4;stroke-dasharray:0.00064726, 0.00064726;stroke-dashoffset:0;stroke-opacity:1" />
        </g>
        <g
           transform="translate(-26,38)"
           id="g3328">
          <path
             style="fill:#005595;fill-opacity:1;fill-rule:evenodd;stroke:#005595;stroke-width:0.77923238px;stroke-linecap:butt;stroke-linejoin:miter;stroke-opacity:1"
             d="M 191.27532,38.588353 L 188.49099,46.74584 L 195.81817,41.06473 L 186.97671,41.06473 L 193.71771,46.64874 L 191.27532,38.588353 z"
             id="path3330" />
          <path
             style="opacity:1;fill:#005595;fill-opacity:1;stroke:#005595;stroke-width:0.00064726;stroke-linecap:square;stroke-linejoin:round;stroke-miterlimit:4;stroke-dasharray:0.00064726, 0.00064726;stroke-dashoffset:0;stroke-opacity:1"
             d="M 190.8345,44.37695 C 190.537,44.130434 190.16607,43.823154 190.01019,43.694105 L 189.72679,43.459472 L 190.01386,42.618025 C 190.17177,42.15523 190.36396,41.592644 190.44099,41.367832 L 190.58101,40.959086 L 191.32579,40.963291 L 192.07055,40.967496 L 192.47265,42.294391 C 192.69381,43.024185 192.87662,43.62995 192.87885,43.640538 C 192.88197,43.65518 191.64582,44.631748 191.41717,44.795275 L 191.37538,44.825161 L 190.8345,44.37695 z"
             id="path3332" />
        </g>
        <g
           id="g3334"
           transform="translate(-14,36)">
          <path
             id="path3336"
             d="M 191.27532,38.588353 L 188.49099,46.74584 L 195.81817,41.06473 L 186.97671,41.06473 L 193.71771,46.64874 L 191.27532,38.588353 z"
             style="fill:#005595;fill-opacity:1;fill-rule:evenodd;stroke:#005595;stroke-width:0.77923238px;stroke-linecap:butt;stroke-linejoin:miter;stroke-opacity:1" />
          <path
             id="path3338"
             d="M 190.8345,44.37695 C 190.537,44.130434 190.16607,43.823154 190.01019,43.694105 L 189.72679,43.459472 L 190.01386,42.618025 C 190.17177,42.15523 190.36396,41.592644 190.44099,41.367832 L 190.58101,40.959086 L 191.32579,40.963291 L 192.07055,40.967496 L 192.47265,42.294391 C 192.69381,43.024185 192.87662,43.62995 192.87885,43.640538 C 192.88197,43.65518 191.64582,44.631748 191.41717,44.795275 L 191.37538,44.825161 L 190.8345,44.37695 z"
             style="opacity:1;fill:#005595;fill-opacity:1;stroke:#005595;stroke-width:0.00064726;stroke-linecap:square;stroke-linejoin:round;stroke-miterlimit:4;stroke-dasharray:0.00064726, 0.00064726;stroke-dashoffset:0;stroke-opacity:1" />
        </g>
        <g
           transform="translate(0,36)"
           id="g3340">
          <path
             style="fill:#005595;fill-opacity:1;fill-rule:evenodd;stroke:#005595;stroke-width:0.77923238px;stroke-linecap:butt;stroke-linejoin:miter;stroke-opacity:1"
             d="M 191.27532,38.588353 L 188.49099,46.74584 L 195.81817,41.06473 L 186.97671,41.06473 L 193.71771,46.64874 L 191.27532,38.588353 z"
             id="path3342" />
          <path
             style="opacity:1;fill:#005595;fill-opacity:1;stroke:#005595;stroke-width:0.00064726;stroke-linecap:square;stroke-linejoin:round;stroke-miterlimit:4;stroke-dasharray:0.00064726, 0.00064726;stroke-dashoffset:0;stroke-opacity:1"
             d="M 190.8345,44.37695 C 190.537,44.130434 190.16607,43.823154 190.01019,43.694105 L 189.72679,43.459472 L 190.01386,42.618025 C 190.17177,42.15523 190.36396,41.592644 190.44099,41.367832 L 190.58101,40.959086 L 191.32579,40.963291 L 192.07055,40.967496 L 192.47265,42.294391 C 192.69381,43.024185 192.87662,43.62995 192.87885,43.640538 C 192.88197,43.65518 191.64582,44.631748 191.41717,44.795275 L 191.37538,44.825161 L 190.8345,44.37695 z"
             id="path3344" />
        </g>
        <g
           id="g3346"
           transform="translate(14,36)">
          <path
             id="path3348"
             d="M 191.27532,38.588353 L 188.49099,46.74584 L 195.81817,41.06473 L 186.97671,41.06473 L 193.71771,46.64874 L 191.27532,38.588353 z"
             style="fill:#005595;fill-opacity:1;fill-rule:evenodd;stroke:#005595;stroke-width:0.77923238px;stroke-linecap:butt;stroke-linejoin:miter;stroke-opacity:1" />
          <path
             id="path3350"
             d="M 190.8345,44.37695 C 190.537,44.130434 190.16607,43.823154 190.01019,43.694105 L 189.72679,43.459472 L 190.01386,42.618025 C 190.17177,42.15523 190.36396,41.592644 190.44099,41.367832 L 190.58101,40.959086 L 191.32579,40.963291 L 192.07055,40.967496 L 192.47265,42.294391 C 192.69381,43.024185 192.87662,43.62995 192.87885,43.640538 C 192.88197,43.65518 191.64582,44.631748 191.41717,44.795275 L 191.37538,44.825161 L 190.8345,44.37695 z"
             style="opacity:1;fill:#005595;fill-opacity:1;stroke:#005595;stroke-width:0.00064726;stroke-linecap:square;stroke-linejoin:round;stroke-miterlimit:4;stroke-dasharray:0.00064726, 0.00064726;stroke-dashoffset:0;stroke-opacity:1" />
        </g>
        <g
           transform="translate(26,38)"
           id="g3352">
          <path
             style="fill:#005595;fill-opacity:1;fill-rule:evenodd;stroke:#005595;stroke-width:0.77923238px;stroke-linecap:butt;stroke-linejoin:miter;stroke-opacity:1"
             d="M 191.27532,38.588353 L 188.49099,46.74584 L 195.81817,41.06473 L 186.97671,41.06473 L 193.71771,46.64874 L 191.27532,38.588353 z"
             id="path3354" />
          <path
             style="opacity:1;fill:#005595;fill-opacity:1;stroke:#005595;stroke-width:0.00064726;stroke-linecap:square;stroke-linejoin:round;stroke-miterlimit:4;stroke-dasharray:0.00064726, 0.00064726;stroke-dashoffset:0;stroke-opacity:1"
             d="M 190.8345,44.37695 C 190.537,44.130434 190.16607,43.823154 190.01019,43.694105 L 189.72679,43.459472 L 190.01386,42.618025 C 190.17177,42.15523 190.36396,41.592644 190.44099,41.367832 L 190.58101,40.959086 L 191.32579,40.963291 L 192.07055,40.967496 L 192.47265,42.294391 C 192.69381,43.024185 192.87662,43.62995 192.87885,43.640538 C 192.88197,43.65518 191.64582,44.631748 191.41717,44.795275 L 191.37538,44.825161 L 190.8345,44.37695 z"
             id="path3356" />
        </g>
        <g
           id="g3358"
           transform="translate(38,40)">
          <path
             id="path3360"
             d="M 191.27532,38.588353 L 188.49099,46.74584 L 195.81817,41.06473 L 186.97671,41.06473 L 193.71771,46.64874 L 191.27532,38.588353 z"
             style="fill:#005595;fill-opacity:1;fill-rule:evenodd;stroke:#005595;stroke-width:0.77923238px;stroke-linecap:butt;stroke-linejoin:miter;stroke-opacity:1" />
          <path
             id="path3362"
             d="M 190.8345,44.37695 C 190.537,44.130434 190.16607,43.823154 190.01019,43.694105 L 189.72679,43.459472 L 190.01386,42.618025 C 190.17177,42.15523 190.36396,41.592644 190.44099,41.367832 L 190.58101,40.959086 L 191.32579,40.963291 L 192.07055,40.967496 L 192.47265,42.294391 C 192.69381,43.024185 192.87662,43.62995 192.87885,43.640538 C 192.88197,43.65518 191.64582,44.631748 191.41717,44.795275 L 191.37538,44.825161 L 190.8345,44.37695 z"
             style="opacity:1;fill:#005595;fill-opacity:1;stroke:#005595;stroke-width:0.00064726;stroke-linecap:square;stroke-linejoin:round;stroke-miterlimit:4;stroke-dasharray:0.00064726, 0.00064726;stroke-dashoffset:0;stroke-opacity:1" />
        </g>
      </g>
    </g>
  </g>
</svg>
